<svg width="78" height="19" viewBox="0 0 78 19" fill="none" xmlns="http://www.w3.org/2000/svg">
<path d="M77.2691 16.5422C77.2691 17.0886 77.041 17.6102 76.6103 17.9828L76.4836 18.0821C76.1543 18.3305 75.7236 18.4795 75.2929 18.4795C74.2034 18.4795 73.3167 17.6102 73.3167 16.5422C73.3167 16.0952 73.4687 15.6729 73.7727 15.3252C73.95 15.1265 74.1781 14.9526 74.4314 14.8285C74.7101 14.7043 74.9888 14.6298 75.2929 14.6298C75.4195 14.6298 75.5209 14.6298 75.6476 14.6546C76.6103 14.8285 77.2944 15.6232 77.2691 16.5422Z" fill="#7A8794"/>
<path d="M8.86087 7.85044L8.68352 7.80077C5.61786 7.25435 4.24972 6.78244 4.24972 5.4909C4.24972 4.6216 4.70577 4.00067 5.59253 3.5536C6.50462 3.1562 7.46739 2.95751 8.45549 2.95751C10.1277 2.98234 11.8252 3.20588 12.8386 4.79546L12.9146 4.89481C12.9653 5.019 13.0413 5.14318 13.1426 5.24253C13.1933 5.29221 13.244 5.34188 13.2947 5.39156C13.8014 5.81379 14.5108 5.83863 15.0428 5.44123L15.1188 5.36672C15.4229 5.11835 15.5749 4.74579 15.5749 4.34839C15.5749 4.24904 15.5749 4.14969 15.5496 4.07518C15.5242 3.92616 15.4736 3.80197 15.3975 3.67779C15.3722 3.65295 15.3469 3.60327 15.3215 3.57844L15.1695 3.37974C13.4213 0.796668 11.2171 0.275085 8.45549 0.275085C6.07391 0.275085 3.89502 0.995365 2.67889 2.23723C1.79213 3.10653 1.33609 4.32355 1.38676 5.54058C1.38676 9.16682 5.13648 9.8871 8.15146 10.4584C11.1664 11.0296 12.9906 11.5015 12.9653 13.1904C12.9653 15.5997 9.82363 15.8729 8.45549 15.8729C6.6313 15.8729 4.35107 15.0036 3.48964 13.3395L3.13494 12.6689H3.1096C2.88158 12.3708 2.55221 12.1721 2.19751 12.0976C2.1215 12.0728 2.02016 12.0728 1.94415 12.0728C1.71613 12.0728 1.51344 12.1224 1.31075 12.2218C1.1334 12.2963 0.981383 12.4205 0.829368 12.5944C0.62668 12.8427 0.5 13.1408 0.5 13.4637C0.5 13.6127 0.525336 13.7617 0.576008 13.9107L0.601344 13.9604C0.62668 14.0101 0.652016 14.0846 0.702688 14.1343L0.930711 14.5813C2.45087 17.4873 5.79522 18.5305 8.43016 18.5305C9.69695 18.5305 11.5465 18.3566 13.1173 17.537C14.7895 16.7173 15.8283 15.0284 15.7776 13.2153C15.8283 9.14198 11.9519 8.4217 8.86087 7.85044Z" fill="#7A8794"/>
<path d="M71.1364 8.14559H60.6473C60.5966 8.14559 60.5206 8.17043 60.47 8.17043C60.1153 8.24494 59.8366 8.44364 59.6339 8.74169C59.6339 8.74169 59.6339 8.76653 59.6085 8.76653C59.4565 8.99006 59.3805 9.23843 59.3805 9.51164C59.3805 9.78485 59.4565 10.0332 59.6085 10.2568C59.6846 10.3561 59.7606 10.4555 59.8619 10.53C60.0393 10.679 60.2419 10.7783 60.4446 10.828C60.47 10.828 60.5206 10.8529 60.5713 10.8529H71.3138L71.3391 10.828C73.0366 10.828 73.67 9.98355 73.898 9.06457C73.6953 4.12196 69.6669 0.197681 64.7264 0.123169H64.5997C63.5103 0.123169 62.4208 0.321867 61.3821 0.694425C58.3164 1.83694 56.0615 4.46968 55.4534 7.64885C55.0734 9.61099 55.3268 11.6476 56.1882 13.4608C56.1882 13.4856 56.2135 13.4856 56.2135 13.5104C56.4415 13.9823 56.6949 14.4294 56.9989 14.8516L57.0243 14.9013C57.987 16.2177 59.2538 17.2609 60.7487 17.9563C62.0408 18.5027 63.4089 18.7759 64.8024 18.7511C64.9798 18.7511 65.1571 18.7511 65.3345 18.7511C66.0439 18.7014 66.728 18.5524 67.3867 18.3537L67.4374 18.3289C68.9322 17.9066 70.9084 17.0622 72.2259 15.3732C72.2512 15.3484 72.2765 15.2987 72.3019 15.2739C72.3525 15.1994 72.4032 15.1249 72.4285 15.0503L72.4539 14.9758C72.4792 14.8516 72.5046 14.7275 72.5046 14.6033C72.5046 14.5288 72.5046 14.4543 72.4792 14.4046C72.4792 14.3797 72.4792 14.3549 72.4539 14.3052C72.4539 14.2804 72.4539 14.2804 72.4285 14.2556C72.2765 13.8085 71.8712 13.4608 71.3898 13.4111C71.3644 13.4111 71.3391 13.4111 71.3138 13.4111H71.2631C70.8831 13.4111 70.5284 13.5849 70.3003 13.8582C70.0723 14.1065 69.8189 14.3301 69.5402 14.5039C69.0842 14.802 68.6028 15.0503 68.0961 15.2242C67.0573 15.6464 65.9425 15.8451 64.8024 15.87C61.8634 15.87 58.7725 14.1065 58.4178 10.1822C58.3671 9.76001 58.3671 9.31294 58.4178 8.86587V8.8162C58.4431 8.39397 58.5191 7.99657 58.6204 7.59918C58.7978 6.92857 59.0512 6.2828 59.4312 5.68671C60.5713 3.89843 62.5222 2.8801 64.8024 2.8801C65.7905 2.8801 66.7786 3.02912 67.6907 3.37685L67.8934 3.45136L68.0961 3.57554H68.1214L68.3495 3.69973C70.0723 4.59387 71.2378 6.2828 71.4404 8.17043L71.1364 8.14559Z" fill="#7A8794"/>
<path d="M54.009 0.123405C53.933 0.0985679 53.8316 0.0985678 53.7556 0.0985678C53.5276 0.0985678 53.3249 0.148242 53.1222 0.247591C52.9449 0.34694 52.7929 0.471126 52.6409 0.62015C52.5902 0.694661 52.5142 0.769173 52.4888 0.868522C52.4635 0.918197 52.4382 0.967871 52.4382 1.01755L52.4128 1.06722L52.3115 1.31559L50.918 4.71829L50.8927 4.76797L49.8792 7.27653L49.8286 7.40071L49.5752 7.97197L48.2071 11.2008L46.7882 14.6283L45.3188 11.176L43.9506 7.94713L43.7226 7.37588L43.6719 7.25169L42.6838 4.74313L42.6585 4.69346L41.265 1.29075L41.1637 1.04238C41.1637 1.01755 41.1383 1.01755 41.1383 0.992708C41.113 0.943034 41.0877 0.893359 41.0877 0.843685C41.037 0.744336 40.9863 0.669824 40.9356 0.595312C40.809 0.446289 40.6316 0.322103 40.4543 0.222754C40.2516 0.123405 40.0235 0.0737305 39.8209 0.0737305C39.7449 0.0737305 39.6435 0.0737306 39.5675 0.0985678C38.8834 0.222754 38.3767 0.79401 38.3767 1.48945C38.3767 1.5888 38.3767 1.68815 38.402 1.7875C38.4274 1.86201 38.4274 1.91169 38.4527 1.9862L38.6301 2.38359L43.2159 13.6349L43.2412 13.6845L43.5706 14.4545L44.9387 17.6337L44.9894 17.7827C45.2934 18.4781 46.0028 18.9252 46.7882 18.9252C47.219 18.9252 47.6243 18.7762 47.979 18.5278L48.0804 18.4781C48.2577 18.3291 48.4098 18.1304 48.5364 17.9069L48.6378 17.6585C48.6378 17.6585 48.6378 17.6585 48.6378 17.6337C48.6378 17.6088 48.6631 17.584 48.6631 17.584L49.9552 14.5538L50.2846 13.7839L50.31 13.7342L54.9211 2.4581L55.0984 2.06071C55.1238 1.9862 55.1491 1.93652 55.1745 1.86201C55.1998 1.76266 55.1998 1.66331 55.1998 1.56396C55.1998 0.843685 54.6931 0.247591 54.009 0.123405Z" fill="#7A8794"/>
<path d="M36.3498 1.34109C36.3498 1.29141 36.3498 1.24174 36.3498 1.19206C36.2738 0.595971 35.8177 0.124064 35.2097 0.024715C35.1337 -0.000122213 35.0323 -0.00012207 34.9563 -0.00012207C34.7536 -0.00012207 34.5256 0.0495523 34.3483 0.148901C34.1709 0.223413 34.0189 0.347599 33.8922 0.496623C33.7149 0.69532 33.6135 0.943693 33.5882 1.19206C33.5882 1.24174 33.5882 1.29141 33.5882 1.34109C33.5882 1.39076 33.5882 1.44044 33.5882 1.49011V3.00518C32.0173 1.16723 29.6104 0.124064 26.8741 0.124064C21.4776 0.148901 17.4238 4.1477 17.4238 9.4877C17.4238 14.8277 21.4776 18.901 26.8741 18.901C29.4584 18.9507 31.916 17.8578 33.5882 15.9454V17.4605C33.5882 17.4853 33.5882 17.5101 33.5882 17.5101C33.5882 17.535 33.5882 17.535 33.5882 17.5598C33.6135 18.2801 34.2216 18.8513 34.9563 18.8513C35.2603 18.8513 35.539 18.752 35.7671 18.5781L35.8684 18.5036C35.9444 18.4539 35.9951 18.3794 36.0458 18.3049C36.1978 18.1062 36.2991 17.833 36.3245 17.5846C36.3245 17.5598 36.3245 17.535 36.3245 17.5101C36.3245 17.4605 36.3245 17.4356 36.3245 17.4108V1.49011C36.3498 1.44044 36.3498 1.39076 36.3498 1.34109ZM32.0173 14.1323C30.7759 15.4983 29.0024 16.2434 26.8741 16.2434C22.9977 16.2434 20.1601 13.3871 20.1601 9.4877C20.1601 5.58825 22.9977 2.75681 26.8741 2.75681C31.5866 2.75681 33.7402 6.25886 33.7402 9.4877C33.7655 11.2015 33.1575 12.8407 32.0173 14.1323Z" fill="#7A8794"/>
</svg>
