<svg width="105" height="32" viewBox="0 0 105 32" fill="none" xmlns="http://www.w3.org/2000/svg">
<path d="M13.267 19.4794C15.1585 19.4793 17.05 19.4967 18.9415 19.479C19.3022 19.4789 19.4341 19.5316 19.4342 19.9442C19.4169 23.6142 19.4172 27.2841 19.4263 30.954C19.4263 31.235 19.3647 31.3579 19.0656 31.4106C15.0187 32.1133 11.2269 31.42 7.78682 29.199C3.71329 26.5742 1.32881 22.8079 0.651005 17.9879C0.615796 17.7596 0.66856 17.4962 0.501388 17.2855C0.501378 17.1714 0.501368 17.0485 0.501359 16.9343C0.589321 16.75 0.527721 16.548 0.545301 16.3549C0.545279 16.0915 0.545258 15.8281 0.545237 15.5647C0.492424 15.2311 0.69477 15.2311 0.941105 15.231C3.16691 15.2396 5.39272 15.2307 7.61853 15.2305C9.34287 15.2304 11.076 15.239 12.8004 15.2213C13.1259 15.2213 13.2227 15.3091 13.2139 15.6339C13.1964 16.7753 13.2053 17.9079 13.2054 19.0492C13.2142 19.1985 13.1614 19.3477 13.267 19.4794Z" fill="#7A8794"/>
<path d="M0.500003 0.534325C0.631967 0.525535 0.763931 0.507965 0.895896 0.507954C4.94282 0.507627 8.98975 0.507299 13.0367 0.498192C13.371 0.498165 13.4766 0.568394 13.4766 0.928363C13.4681 5.01093 13.4685 9.08472 13.4776 13.1673C13.4776 13.5097 13.3896 13.6063 13.0377 13.6063C9.03479 13.5891 5.03186 13.5894 1.02892 13.5985C0.852967 13.5985 0.677014 13.6073 0.501061 13.6161C0.500708 9.25259 0.500355 4.88907 0.500003 0.534325Z" fill="#7A8794"/>
<path d="M14.7781 9.13642C14.7778 6.38836 14.7864 3.64031 14.7686 0.89226C14.7686 0.462054 14.9005 0.356686 15.3052 0.339094C21.4196 0.180564 26.2233 2.56826 29.558 7.71291C31.4674 10.654 32.1802 13.92 31.899 17.4143C31.8726 17.7918 31.7671 17.9235 31.3624 17.9236C26.0046 17.9065 20.638 17.9069 15.2802 17.9249C14.8843 17.9249 14.77 17.8283 14.7787 17.4245C14.7873 14.6676 14.7783 11.902 14.7781 9.13642Z" fill="#7A8794"/>
<path d="M71.8235 13.3114C73.5213 11.6431 75.5007 11.3269 77.6562 11.9764C79.2046 12.4416 79.9701 13.6356 80.2782 15.1545C80.3926 15.7251 80.4542 16.3046 80.4543 16.8928C80.4456 19.0965 80.4546 21.309 80.4548 23.5127C80.4548 24.0922 80.2789 24.5927 79.7247 24.8561C79.1705 25.1283 78.581 25.1284 78.0443 24.8123C77.4989 24.4963 77.3756 23.9695 77.3756 23.3813C77.3842 21.3356 77.3841 19.2899 77.3751 17.2443C77.3751 16.8843 77.3574 16.5155 77.3046 16.1556C77.0934 14.8123 76.2839 14.1802 74.9203 14.2681C72.9584 14.3912 71.8676 15.5678 71.8502 17.5959C71.8415 19.466 71.8505 21.3361 71.8419 23.2061C71.8419 23.4695 71.8419 23.7329 71.7803 23.9875C71.622 24.6636 70.9798 25.0851 70.2056 25.0412C69.4138 24.9974 68.8508 24.5058 68.7627 23.7683C68.7539 23.6629 68.7451 23.5664 68.7451 23.461C68.7448 20.0808 68.7445 16.7094 68.7443 13.3292C68.7442 12.2756 69.3952 11.6786 70.4509 11.7399C71.1547 11.775 71.6474 12.2315 71.753 12.9339C71.7882 13.048 71.8058 13.1621 71.8235 13.3114Z" fill="#7A8794"/>
<path d="M31.5656 19.5127C31.2402 20.8736 30.7828 22.1643 30.1143 23.3672C28.1879 26.8529 25.3816 29.3465 21.6163 30.7252C21.1501 30.9009 21.1501 30.8921 21.15 30.4092C21.1497 26.9061 21.1494 23.3942 21.1492 19.8911C21.1491 19.6628 21.1139 19.4872 21.4746 19.4872C24.7562 19.5045 28.0377 19.4955 31.3192 19.4952C31.3896 19.4864 31.46 19.504 31.5656 19.5127Z" fill="#7A8794"/>
<path d="M84.2806 18.0632C84.2805 16.8604 84.2717 15.8243 84.2892 14.7883C84.2892 14.5425 84.2188 14.4723 83.9724 14.4723C83.5238 14.4811 83.0663 14.5163 82.6176 14.4197C81.9578 14.2881 81.6058 13.8667 81.6234 13.1906C81.6409 12.5585 82.0632 12.0844 82.7054 12.0229C83.1101 11.9877 83.5236 11.9877 83.9371 12.0052C84.201 12.014 84.2977 11.9349 84.2889 11.6628C84.2713 10.9867 84.2712 10.3195 84.2888 9.64342C84.3239 8.51961 85.1156 7.91375 86.2153 8.14193C86.8576 8.27358 87.2887 8.70375 87.3415 9.371C87.3944 10.1085 87.3856 10.8636 87.3769 11.601C87.3681 11.8996 87.4561 12.0049 87.764 11.9961C88.4327 11.9785 89.1101 11.9784 89.7875 12.0047C90.5353 12.031 90.984 12.4436 91.0281 13.1021C91.0721 13.8396 90.7026 14.3137 89.9285 14.4279C89.1895 14.5421 88.4329 14.4544 87.6938 14.472C87.5003 14.472 87.3771 14.472 87.3772 14.7442C87.3949 16.7284 87.3775 18.7214 87.4128 20.7056C87.4393 21.8997 88.0112 22.444 89.1989 22.5492C89.5772 22.5843 89.9643 22.5843 90.325 22.6984C90.9057 22.8739 91.1608 23.2251 91.1521 23.8309C91.1433 24.3752 90.7915 24.9108 90.2548 24.9811C88.8648 25.1744 87.5012 24.9901 86.2606 24.3142C84.9409 23.5943 84.4569 22.3564 84.3425 20.9254C84.2456 19.9157 84.2983 18.906 84.2806 18.0632Z" fill="#7A8794"/>
<path d="M52.3973 15.5527C51.9573 14.2007 51.139 13.1209 49.8897 12.401C48.1301 11.3827 45.1037 11.2337 43.186 13.3673C43.1859 13.2005 43.1859 13.1127 43.1859 13.0249C43.1858 11.2426 43.1856 9.46035 43.1679 7.66929C43.1591 7.01081 42.7895 6.57186 42.1737 6.39631C41.0123 6.06278 40.0974 6.77401 40.0976 8.03829C40.098 13.1305 40.0984 18.214 40.0988 23.3062C40.0988 23.5257 40.1164 23.7452 40.1604 23.9559C40.3188 24.6407 40.8995 25.0533 41.6561 25.0533C42.4127 25.0532 42.9845 24.6229 43.134 23.9381C43.1692 23.7889 43.1692 23.6396 43.1868 23.4903C43.2396 23.5079 43.2572 23.5079 43.266 23.5167C45.3072 25.9222 49.9964 25.7286 51.8612 22.3044C53.0575 20.1357 53.1453 17.8617 52.3973 15.5527ZM49.4241 20.3994C48.9491 21.8042 47.9198 22.5593 46.4682 22.5594C44.9374 22.5596 43.9345 21.8748 43.4857 20.4086C43.0017 18.8283 43.0015 17.2392 43.7668 15.729C44.2946 14.6754 45.2271 14.2539 46.3532 14.2363C47.5233 14.2098 48.5087 14.6136 49.1246 15.6671C49.5381 16.3783 49.6789 17.1684 49.7054 17.9762C49.7319 18.8014 49.6879 19.6092 49.4241 20.3994Z" fill="#7A8794"/>
<path d="M103.25 13.9872C101.947 12.2928 100.144 11.6608 98.0852 11.6873C96.1057 11.7138 94.3815 12.3724 93.1411 13.9968C92.1559 15.2875 91.8393 16.78 91.8218 18.4745C91.8308 19.9759 92.1564 21.5035 93.1682 22.8028C94.4264 24.427 96.1684 25.0853 98.1655 25.0939C100.233 25.1025 102.019 24.4263 103.294 22.723C104.236 21.4674 104.561 20.0187 104.57 18.4823C104.587 16.8492 104.261 15.3128 103.25 13.9872ZM101.06 20.8619C100.549 21.9418 99.6873 22.4862 98.4996 22.5566C97.18 22.6269 96.045 22.2495 95.4643 20.994C94.6987 19.3259 94.6986 17.5875 95.4287 15.9018C95.9652 14.6813 97.1793 14.093 98.5781 14.2421C99.9857 14.3913 100.954 15.2428 101.306 16.6476C101.446 17.2182 101.508 17.7977 101.499 18.3859C101.499 19.2376 101.429 20.0804 101.06 20.8619Z" fill="#7A8794"/>
<path d="M58.1006 19.1256C59.2531 19.1519 60.4144 19.1342 61.5756 19.1341C62.7017 19.134 63.8278 19.134 64.9627 19.1339C65.1563 19.1338 65.341 19.1251 65.5258 19.0811C66.0624 18.9757 66.3527 18.6684 66.3879 18.1241C66.4142 17.7202 66.4142 17.3076 66.3702 16.9037C66.1589 15.0161 65.4198 13.4007 63.7129 12.4087C62.4988 11.6976 61.1527 11.5485 59.7627 11.7505C57.9152 12.0316 56.4725 12.9185 55.5225 14.5428C54.3702 16.5271 54.2647 18.6518 54.8544 20.8116C55.268 22.3305 56.183 23.5244 57.5907 24.2443C60.3005 25.6137 62.9662 25.3237 65.535 23.8046C65.7109 23.6993 65.8605 23.55 65.9924 23.4007C66.3971 22.909 66.4146 22.1715 66.0451 21.6975C65.6931 21.2409 65.2356 21.1795 64.5494 21.4956C63.9952 21.7503 63.441 22.0313 62.878 22.2684C61.8839 22.6811 60.8457 22.7251 59.8252 22.4003C58.4879 21.979 57.9248 20.9167 57.6607 19.6173C57.5815 19.1784 57.7047 19.1169 58.1006 19.1256ZM57.6693 16.9044C57.8363 14.6568 60.4843 13.2869 62.3847 14.4896C63.2733 15.0514 63.5461 15.9821 63.6605 16.9654C63.6869 17.2463 63.4758 17.1673 63.335 17.1673C62.4377 17.1762 61.5491 17.1675 60.6517 17.1676C59.7544 17.1676 58.8658 17.1677 57.9684 17.1678C57.7661 17.1853 57.6429 17.1854 57.6693 16.9044Z" fill="#7A8794"/>
</svg>
