<svg width="19" height="18" viewBox="0 0 19 18" fill="none" xmlns="http://www.w3.org/2000/svg">
<path d="M4.25 6C5.49264 6 6.5 4.99264 6.5 3.75C6.5 2.50736 5.49264 1.5 4.25 1.5C3.00736 1.5 2 2.50736 2 3.75C2 4.99264 3.00736 6 4.25 6Z" stroke="white" stroke-width="1.5" stroke-linecap="round" stroke-linejoin="round"/>
<path d="M14.75 11.25C15.9926 11.25 17 10.2426 17 9C17 7.75736 15.9926 6.75 14.75 6.75C13.5074 6.75 12.5 7.75736 12.5 9C12.5 10.2426 13.5074 11.25 14.75 11.25Z" stroke="white" stroke-width="1.5" stroke-linecap="round" stroke-linejoin="round"/>
<path d="M4.25 16.5C5.49264 16.5 6.5 15.4926 6.5 14.25C6.5 13.0074 5.49264 12 4.25 12C3.00736 12 2 13.0074 2 14.25C2 15.4926 3.00736 16.5 4.25 16.5Z" stroke="white" stroke-width="1.5" stroke-linecap="round" stroke-linejoin="round"/>
<path d="M12.5 9H7.25C5.6 9 4.25 8.25 4.25 6V12" stroke="white" stroke-width="1.5" stroke-linecap="round" stroke-linejoin="round"/>
</svg>
