<?xml version="1.0" encoding="UTF-8" standalone="no"?>
<svg
   xmlns:dc="http://purl.org/dc/elements/1.1/"
   xmlns:cc="http://creativecommons.org/ns#"
   xmlns:rdf="http://www.w3.org/1999/02/22-rdf-syntax-ns#"
   xmlns:svg="http://www.w3.org/2000/svg"
   xmlns="http://www.w3.org/2000/svg"
   viewBox="0 0 1122.52 1122.8333"
   height="1122.8333"
   width="1122.52"
   xml:space="preserve"
   id="svg2"
   version="1.1"><metadata
     id="metadata8"><rdf:RDF><cc:Work
         rdf:about=""><dc:format>image/svg+xml</dc:format><dc:type
           rdf:resource="http://purl.org/dc/dcmitype/StillImage" /></cc:Work></rdf:RDF></metadata><defs
     id="defs6"><clipPath
       id="clipPath22"
       clipPathUnits="userSpaceOnUse"><path
         id="path20"
         d="M 0,842.125 H 841.89 V 0 H 0 Z" /></clipPath></defs><g
     transform="matrix(1.3333333,0,0,-1.3333333,0,1122.8333)"
     id="g10"><text
       id="text14"
       style="font-variant:normal;font-weight:normal;font-stretch:normal;font-size:38.97570038px;font-family:Intro;-inkscape-font-specification:IntroBookAlt;writing-mode:lr-tb;fill:#3f80af;fill-opacity:1;fill-rule:nonzero;stroke:none"
       transform="matrix(1,0,0,-0.93337644,338.7266,289.5039)"><tspan
         id="tspan12"
         y="0"
         x="0 15.59028 44.666153 73.742027 104.33795 128.26903 153.44733 174.84499">INNOVATE</tspan></text>
<g
       id="g16"><g
         clip-path="url(#clipPath22)"
         id="g18"><g
           transform="translate(429.4775,462.6318)"
           id="g24"><path
             id="path26"
             style="fill:#3f80af;fill-opacity:1;fill-rule:nonzero;stroke:none"
             d="m 0,0 c 0.435,-18.882 -18.48,-31.89 -36.135,-24.85 -15.033,5.996 -24.427,1.854 -29.115,-13.146 -2.104,-6.733 -6.315,-10.646 -13.316,-11.039 -7.48,-0.42 -13.022,3.003 -15.747,9.962 -2.541,6.491 -0.535,12.127 4.526,16.833 10.71,9.961 10.8,35.431 0.145,44.973 -7.14,6.393 -9.224,14.176 -5.411,22.824 3.632,8.238 10.669,11.693 19.581,10.736 9.061,-0.973 14.615,-6.367 16.524,-15.045 1.957,-8.894 -1.976,-15.533 -9.388,-20.28 -7.957,-5.097 -13.162,-33.215 -6.597,-39.533 3.316,-3.191 7.478,-8.331 13.709,-3.388 5.02,3.983 12.865,4.241 9.677,15.241 -4.641,16.01 7.081,30.747 23.122,32.325 C -13.969,27.035 -0.34,14.754 0,0" /></g><g
           transform="translate(485.3428,435.4497)"
           id="g28"><path
             id="path30"
             style="fill:#55b0cf;fill-opacity:1;fill-rule:nonzero;stroke:none"
             d="m 0,0 c -0.136,-10.697 -8.938,-18.976 -19.887,-18.708 -10.849,0.266 -19.13,8.996 -18.82,19.84 0.295,10.34 9.47,18.302 20.608,17.886 C -8.052,18.642 0.128,10.047 0,0" /></g><g
           transform="translate(387.5195,397.0713)"
           id="g32"><path
             id="path34"
             style="fill:#56b1cf;fill-opacity:1;fill-rule:nonzero;stroke:none"
             d="M 0,0 C 0.919,10.057 6.12,16.126 15.074,16.251 24.651,16.384 31.047,10.117 31.078,0.437 31.111,-9.509 24.427,-14.925 14.732,-14.682 5.373,-14.447 0.992,-8.145 0,0" /></g><g
           transform="translate(347.8804,365.981)"
           id="g36"><path
             id="path38"
             style="fill:#1d244e;fill-opacity:1;fill-rule:nonzero;stroke:none"
             d="m 0,0 c -3.244,-0.464 -9.576,-0.464 -13.437,-0.464 v -41.24 H -41.703 V 66.415 h 28.266 v -42.32 c 4.479,0 11.893,-0.311 15.754,1.698 4.943,2.472 6.641,8.959 9.731,21.935 3.244,13.128 13.746,23.784 39.077,18.533 V 47.263 C 44.33,47.728 39.696,46.183 37.997,39.541 34.444,26.566 30.737,17.453 24.713,10.812 35.063,-5.253 45.102,-21.469 55.604,-37.534 v -4.17 H 23.632 Z" /></g><g
           transform="translate(493.5107,432.5513)"
           id="g40"><path
             id="path42"
             style="fill:#1d244e;fill-opacity:1;fill-rule:nonzero;stroke:none"
             d="m 0,0 h 10.04 v -108.43 h -28.267 v 49.891 L -41.24,-82.636 h -3.243 l -23.014,24.097 V -108.43 H -95.764 V 0 h 10.04 l 42.94,-46.801 z" /></g><g
           transform="translate(528.5068,349.4897)"
           id="g44"><path
             id="path46"
             style="fill:#1d244e;fill-opacity:1;fill-rule:nonzero;stroke:none"
             d="M 0,0 H 39.077 V -25.368 H -28.267 V 82.906 H 0 Z" /></g></g></g></g></svg>