<svg width="93" height="26" viewBox="0 0 93 26" fill="none" xmlns="http://www.w3.org/2000/svg">
<path d="M28.8469 7.76526H25.4132C22.4372 7.76526 20.0145 10.1754 20.0145 13.1322V19.9394C20.0145 22.8962 22.4372 25.3016 25.4179 25.3016H28.8517C29.672 25.3016 30.3397 24.6361 30.3397 23.8184C30.3397 23.0008 29.672 22.3353 28.8517 22.3353H25.4179C24.0826 22.3353 22.9905 21.261 22.9905 19.9347V13.1274C22.9905 11.8059 24.0778 10.7268 25.4132 10.7268H28.8469C30.0392 10.7268 31.0073 11.6918 31.0073 12.8755C31.0073 14.0639 30.0392 15.0289 28.8517 15.0289H25.3464C24.5261 15.0289 23.8584 15.6944 23.8584 16.512C23.8584 17.3297 24.5261 17.9952 25.3464 17.9952H28.8517C31.6846 17.9952 33.9833 15.6991 33.9833 12.8755C33.9833 10.0518 31.6798 7.76526 28.8469 7.76526Z" fill="#7A8794"/>
<path d="M16.6263 7.75662H13.431V7.80415C11.2325 8.0561 9.52036 9.91479 9.52036 12.168L9.52512 23.8336C9.52512 24.6512 10.1928 25.3167 11.0131 25.3167C11.8334 25.3167 12.5011 24.6512 12.5011 23.8336L12.4963 12.168C12.4963 11.3742 13.1449 10.7277 13.9413 10.7229H16.6263C17.4466 10.7229 18.1143 10.0574 18.1143 9.23976C18.1143 8.41738 17.4466 7.75186 16.6263 7.75662Z" fill="#7A8794"/>
<path d="M4.97419 21.4971C3.71991 20.1993 2.99977 18.4262 2.99977 16.6388L2.99501 9.28012V9.26586C2.96639 8.44823 2.29394 7.78271 1.48796 7.78271C0.667677 7.78271 0 8.44823 0 9.26586L0.00476941 16.6246C0.00476941 19.2201 1.00628 21.673 2.81855 23.5364L4.10621 24.8532C4.39712 25.1432 4.77865 25.3048 5.17926 25.3048C5.55602 25.3048 5.90893 25.1669 6.19985 24.9055L6.20939 24.896C6.5003 24.6202 6.66722 24.2352 6.67199 23.8359C6.67676 23.4413 6.52892 23.0753 6.25708 22.8091L4.97419 21.4971Z" fill="#7A8794"/>
<path d="M1.61196 4.93077C2.49902 4.93077 3.22392 4.20821 3.22392 3.32403C3.22392 2.43984 2.49902 1.71729 1.61196 1.71729C0.724907 1.71729 0 2.43984 0 3.32403C0 4.20821 0.724907 4.93077 1.61196 4.93077Z" fill="#7A8794"/>
<path d="M67.4206 7.79128H63.7722C62.9519 7.79128 62.2843 8.4568 62.2843 9.27443C62.2843 10.0921 62.9519 10.7576 63.7722 10.7576H67.4206C68.756 10.7576 69.8481 11.8319 69.8481 13.1582V19.9322C69.8481 21.2537 68.7607 22.3328 67.4254 22.3328H63.7627C62.4273 22.3328 61.3352 21.2585 61.3352 19.9322L61.3305 1.47839V1.46413C61.3018 0.641746 60.6485 0 59.8425 0C59.0222 0 58.3545 0.665516 58.3545 1.48315L58.3593 19.9369C58.3593 22.8937 60.782 25.2991 63.7627 25.2991H67.4254C70.4013 25.2991 72.824 22.889 72.824 19.9322V13.1582C72.824 10.1966 70.3965 7.79128 67.4206 7.79128Z" fill="#7A8794"/>
<path d="M90.2924 11.1943C89.1287 9.66833 87.5358 8.57973 85.6854 8.05207L85.6187 8.03306H85.5471C85.5281 8.03306 85.4994 8.02831 85.466 8.02831C85.4136 8.02355 85.3516 8.0188 85.2801 8.0188C84.6219 8.0188 84.0353 8.46089 83.8493 9.09313V9.09788C83.6347 9.87749 84.0782 10.6809 84.8651 10.9233L84.8795 10.928C87.3737 11.6316 89.1144 13.9276 89.1192 16.5184C89.1192 19.7176 86.5105 22.3226 83.3009 22.3226C81.7366 22.3226 80.2629 21.7094 79.1613 20.5923C78.8799 20.3118 78.5079 20.1597 78.1073 20.1597C77.7115 20.1597 77.3395 20.3118 77.0581 20.5875C76.772 20.8632 76.6098 21.234 76.6098 21.6333C76.6098 22.0326 76.7672 22.4034 77.0533 22.6791C78.713 24.3524 80.9306 25.2699 83.3009 25.2699C88.1511 25.2699 92.0951 21.3339 92.0951 16.4994C92.0856 14.5646 91.4656 12.7344 90.2924 11.1943Z" fill="#7A8794"/>
<path d="M78.4351 13.3583C79.2315 12.1556 80.419 11.2857 81.7877 10.9149C82.1645 10.8103 82.484 10.5678 82.6843 10.2303C82.8894 9.88332 82.9419 9.48401 82.8369 9.10372L82.8322 9.0847C82.6223 8.4382 82.0453 8.00562 81.3871 8.00562C81.2727 8.00562 81.1534 8.01988 81.0151 8.05791L81.0056 8.06266C78.9215 8.62359 77.1235 9.93561 75.9503 11.7468C75.731 12.0748 75.6547 12.4693 75.7405 12.8639C75.8216 13.2442 76.0505 13.5769 76.3796 13.8003C76.618 13.9572 76.9089 14.0428 77.1951 14.0428C77.6958 14.0333 78.1728 13.7766 78.4351 13.3583Z" fill="#7A8794"/>
<path d="M50.2053 7.76099C48.7555 7.76099 47.4058 8.33618 46.4186 9.35347C45.4314 8.33618 44.0818 7.76099 42.6319 7.76099C39.7228 7.76099 37.3573 10.1141 37.3573 13.0043L37.3621 23.8189C37.3621 24.6365 38.0297 25.3021 38.85 25.3021C39.6703 25.3021 40.338 24.6365 40.338 23.8189L40.3332 13.0043C40.3332 11.7398 41.3634 10.7083 42.6319 10.7083C43.9005 10.7083 44.9354 11.7351 44.9354 12.9995L44.9402 23.8142C44.9402 24.6318 45.6079 25.2973 46.4282 25.2973C47.2484 25.2973 47.9161 24.6318 47.9161 23.8142L47.9114 12.9995C47.9114 11.7351 48.9415 10.7035 50.2101 10.7035C51.4786 10.7035 52.5136 11.7303 52.5136 12.9948L52.5183 23.8094C52.5183 24.627 53.186 25.2926 54.0063 25.2926C54.8266 25.2926 55.4942 24.627 55.4942 23.8094L55.4895 12.9948C55.4847 10.1093 53.1145 7.76099 50.2053 7.76099Z" fill="#7A8794"/>
</svg>
