<svg width="105" height="20" viewBox="0 0 105 20" fill="none" xmlns="http://www.w3.org/2000/svg">
<path d="M33.7399 11.0241C35.0335 9.40164 36.2833 7.91071 37.4672 6.33207C37.9496 5.69624 38.4758 5.36735 39.287 5.45505C40.2298 5.54276 41.1726 5.47698 42.1154 5.47698C42.247 5.93742 41.9181 6.13475 41.7427 6.354C40.4052 7.99841 39.0239 9.59897 37.7303 11.2653C36.6121 12.6905 36.5683 12.1643 37.7961 13.6333C39.1555 15.2996 40.6026 16.9002 42.0058 18.5226C42.2031 18.7638 42.4662 18.9612 42.5539 19.4435C41.1726 19.4435 39.879 19.4435 38.5854 19.4435C38.0592 19.4435 37.8619 19.005 37.5769 18.698C36.3052 17.2071 35.0554 15.7162 33.6522 14.0718C33.3891 15.5846 33.5206 16.8782 33.5426 18.1718C33.5645 19.1146 33.3672 19.5312 32.2928 19.4874C29.8591 19.4216 29.8591 19.4874 29.8591 17.0756C29.8591 12.6247 29.881 8.17381 29.8372 3.72294C29.8372 2.93362 30.0345 2.40741 30.758 2.07853C31.35 1.81542 31.8982 1.44269 32.4682 1.11381C33.4987 0.521821 33.4987 0.521822 33.5206 1.68387C33.5206 4.42456 33.5206 7.16524 33.5206 9.90593C33.5426 10.2129 33.411 10.5856 33.7399 11.0241Z" fill="#7A8794"/>
<path d="M59.7434 12.3923C59.7434 10.4847 59.8092 8.59915 59.7215 6.69164C59.6776 5.63921 60.0503 5.31033 61.0151 5.46381C61.2343 5.48573 61.4536 5.50766 61.6728 5.46381C62.5498 5.33226 62.9664 5.68306 62.9664 6.58201C62.9445 7.37133 63.1857 7.45903 63.8215 6.95474C66.0798 5.15685 70.9035 5.26648 72.4382 8.86226C72.811 9.73928 73.0302 10.6601 73.0521 11.6249C73.0521 13.927 73.0302 16.2292 73.0741 18.5314C73.096 19.233 72.8987 19.4742 72.1532 19.4742C69.4125 19.518 69.4344 19.54 69.4344 16.8431C69.4344 15.2645 69.4564 13.7078 69.4125 12.1292C69.3687 10.112 68.2943 8.99381 66.5184 9.01574C64.6985 9.03766 63.4269 10.3313 63.4049 12.2388C63.383 14.3656 63.383 16.4704 63.4049 18.5972C63.4049 19.2549 63.1857 19.4742 62.5279 19.4742C59.7653 19.54 59.7653 19.5619 59.7434 16.7774C59.7434 16.0538 59.7434 15.3083 59.7434 14.5848C59.7434 13.8613 59.7434 13.1377 59.7434 12.3923Z" fill="#7A8794"/>
<path d="M3.00012 7.60361C4.24987 6.48541 5.63117 5.8715 7.27559 5.8715C10.7837 5.8715 13.042 7.82287 13.2174 11.3309C13.3489 13.7647 13.2393 16.2203 13.2612 18.676C13.2612 19.3118 12.9762 19.4653 12.4061 19.4872C10.7179 19.5311 10.7179 19.553 10.7179 17.8867C10.7179 15.9791 10.7398 14.0936 10.7179 12.186C10.696 9.73038 9.42428 8.2833 7.27559 8.17367C5.10496 8.08597 3.28515 9.59883 3.13167 11.8352C2.97819 14.0059 3.00012 16.2203 3.06589 18.3909C3.08782 19.4653 2.56161 19.4653 1.79422 19.4434C1.04875 19.4214 0.478686 19.5091 0.500612 18.4129C0.566388 14.839 0.522537 11.2652 0.522537 7.69131C0.522537 6.902 1.68459 5.71802 2.45198 5.69609C2.78086 5.67417 2.78086 5.91535 2.80279 6.1346C2.86856 6.57311 2.73701 7.05547 3.00012 7.60361Z" fill="#7A8794"/>
<path d="M88.7729 5.34538C88.7729 2.18811 88.7729 2.18811 86.0322 0.719107C85.3745 0.368299 85.0675 0.368299 85.1114 1.24532C85.1552 2.88973 85.1114 4.53414 85.1333 6.17855C85.1333 6.77054 84.9798 6.92402 84.4536 6.55128C83.5547 5.89352 82.5022 5.56464 81.384 5.49886C78.4899 5.32346 76.1877 6.61706 75.0256 9.02886C73.7759 11.6161 74.2363 15.2338 75.9684 17.2948C77.7006 19.3777 81.8445 20.5836 85.2868 17.7552C85.7911 19.4435 85.7911 19.4435 87.567 19.4435C87.6109 19.4435 87.6328 19.4435 87.6766 19.4435C88.6194 19.5969 88.8387 19.1584 88.8168 18.2814C88.751 13.9621 88.7729 9.6647 88.7729 5.34538ZM81.4717 16.2204C79.4107 16.1985 77.9198 14.6199 77.8979 12.4712C77.876 10.2567 79.3888 8.65613 81.5156 8.65613C83.6424 8.65613 85.1114 10.2128 85.1114 12.4492C85.1114 14.6637 83.5985 16.2423 81.4717 16.2204Z" fill="#7A8794"/>
<path d="M57.0245 6.22243C57.0245 5.95932 57.1342 5.52081 56.7395 5.49889C55.8625 5.45504 54.9635 5.36733 54.1304 5.54274C53.6042 5.65237 53.9111 6.46361 53.6919 6.90212C53.6699 6.94597 53.5822 6.98982 53.5384 7.03367C50.2057 4.38069 46.1276 5.45504 44.4174 7.36255C42.2029 9.84013 41.9617 14.4006 44.0227 16.9878C46.2811 19.8162 49.4603 20.0793 53.5822 17.7991C54.0646 19.4216 54.0646 19.4216 55.8844 19.4216C55.994 19.4216 56.1037 19.3996 56.2133 19.4216C56.8491 19.4873 57.0026 19.1804 57.0026 18.5884C57.0026 14.4883 57.0245 10.3663 57.0245 6.22243ZM49.8111 16.2204C47.6843 16.2204 46.2372 14.7076 46.2372 12.4493C46.2372 10.1909 47.7062 8.63423 49.833 8.67808C51.9378 8.70001 53.363 10.1909 53.3849 12.4273C53.4068 14.6637 51.9598 16.2204 49.8111 16.2204Z" fill="#7A8794"/>
<path d="M104.449 6.22243C104.449 5.95932 104.537 5.52081 104.142 5.49889C103.265 5.45504 102.366 5.36733 101.533 5.54274C101.007 5.65237 101.27 6.44168 101.073 6.90212C101.051 6.94597 100.985 6.98982 100.919 7.03367C97.5867 4.42454 93.5086 5.41119 91.7326 7.47218C89.6059 9.94976 89.3866 14.4664 91.4257 17.0098C93.684 19.8382 96.907 20.1232 100.985 17.7991C101.446 19.4216 101.446 19.4216 103.2 19.4216C103.353 19.4216 103.485 19.3996 103.638 19.4216C104.274 19.4873 104.449 19.1804 104.449 18.5884C104.449 14.4664 104.449 10.3444 104.449 6.22243ZM97.2798 16.2204C95.1311 16.2643 93.6182 14.7076 93.6182 12.4931C93.5963 10.2348 95.0872 8.65616 97.1921 8.67808C99.2969 8.67808 100.788 10.1909 100.81 12.3616C100.854 14.598 99.4065 16.1766 97.2798 16.2204Z" fill="#7A8794"/>
<path d="M21.6368 5.47693C17.4271 5.45501 14.5549 8.2834 14.533 12.4054C14.511 16.5055 17.4271 19.4215 21.571 19.4215C25.6711 19.4215 28.5653 16.5493 28.6091 12.515C28.631 8.32725 25.6492 5.49886 21.6368 5.47693ZM21.5491 17.0317C19.0277 17.0317 17.0982 15.0803 17.0982 12.4931C17.0544 9.86203 18.9619 7.86681 21.5491 7.84489C24.1144 7.82296 26.0658 9.81818 26.0658 12.4273C26.0658 15.0584 24.1363 17.0317 21.5491 17.0317Z" fill="#7A8794"/>
</svg>
